<?xml version="1.0" standalone="no"?><!DOCTYPE svg PUBLIC "-//W3C//DTD SVG 1.1//EN" "http://www.w3.org/Graphics/SVG/1.1/DTD/svg11.dtd"><svg t="1592230773826" class="icon" viewBox="0 0 1024 1024" version="1.1" xmlns="http://www.w3.org/2000/svg" p-id="2743" xmlns:xlink="http://www.w3.org/1999/xlink" width="200" height="200"><defs><style type="text/css"></style></defs><path d="M28.7057122 512a483.2942878 483.2942878 0 1 0 483.2942878-483.2942878 483.2942878 483.2942878 0 0 0-483.2942878 483.2942878z" fill="#FC6A6A" p-id="2744"></path><path d="M767.6584555 267.80285155a35.42586102 35.42586102 0 0 1 0 48.86136605l-439.36841364 439.36841364a34.54843957 34.54843957 0 0 1-48.86136605-48.86136483l439.58776992-439.36841486a35.42586102 35.42586102 0 0 1 48.64200977 0z" fill="#FFFFFF" p-id="2745"></path><path d="M279.37383796 267.74801371a35.42586102 35.42586102 0 0 1 48.86136482 0l439.36841365 439.36841363a34.54843957 34.54843957 0 0 1-48.86136484 48.86136483L279.37383796 316.60937853a35.42586102 35.42586102 0 0 1 0-48.86136482z" fill="#FFFFFF" p-id="2746"></path></svg>